<svg viewBox="-822.5 -495 1645 990" width="1645" height="990" style="background-color: rgb(255, 255, 255);" xmlns="http://www.w3.org/2000/svg"><path d="M-68.47308695771875,69.85008380051511L-75.53281154631284,69.01336867260594M-75.53281154631284,-132.6611426930255L-75.53281154631284,69.01336867260594M-75.53281154631284,69.01336867260594L-184.80037663405793,101.8065797261836M-68.47308695771875,-131.82442756511634L-68.47308695771875,69.85008380051511M-68.47308695771875,69.85008380051511L-177.74065204546383,102.64329485409277" style="fill:none;stroke:rgb(0,0,0);stroke-width:1;stroke-linecap:round"></path><path d="M-68.47308695771873,69.8500838005151L-75.53281154631286,69.01336867260592L-75.53281154631286,-132.6611426930255zM-68.47308695771873,-131.82442756511634L-68.47308695771873,69.8500838005151L-75.53281154631286,-132.6611426930255z" style="fill:rgb(238,238,238); fill-opacity: 0.4"></path><path d="M-68.47308695771875,-131.82442756511634L-75.53281154631284,-132.6611426930255M-75.53281154631284,-132.6611426930255L-184.80037663405793,-99.86793163944783M-68.47308695771875,-131.82442756511634L-177.74065204546383,-99.03121651153866M22.51243563962889,80.6336437287477L-4.212705721102247,77.46619296046104M-4.212705721102247,-124.20831840517039L-4.212705721102247,77.46619296046104M-4.212705721102247,77.46619296046104L-113.48027080884737,110.25940401403871" style="fill:none;stroke:rgb(0,0,0);stroke-width:1;stroke-linecap:round"></path><path d="M-184.80037663405793,101.80657972618359L-75.53281154631286,69.01336867260592L-68.47308695771873,69.8500838005151z" style="fill:rgb(238,238,238); fill-opacity: 0.4"></path><path d="M22.51243563962889,-121.04086763688375L22.51243563962889,80.6336437287477M22.51243563962889,80.6336437287477L-86.75512944811621,113.42685478232536" style="fill:none;stroke:rgb(0,0,0);stroke-width:1;stroke-linecap:round"></path><path d="M22.512435639628883,80.6336437287477L-4.21270572110225,77.46619296046104L-4.21270572110225,-124.20831840517039zM-177.7406520454638,102.64329485409276L-68.47308695771873,69.8500838005151L-68.47308695771873,-131.82442756511634zM22.512435639628883,-121.04086763688375L22.512435639628883,80.6336437287477L-4.21270572110225,-124.20831840517039zM-75.53281154631286,-132.6611426930255L-75.53281154631286,69.01336867260592L-184.80037663405793,-99.86793163944785z" style="fill:rgb(238,238,238); fill-opacity: 0.4"></path><path d="M22.51243563962889,-121.04086763688375L-4.212705721102247,-124.20831840517039M-4.212705721102247,-124.20831840517039L-113.48027080884737,-91.41510735159272" style="fill:none;stroke:rgb(0,0,0);stroke-width:1;stroke-linecap:round"></path><path d="M-177.7406520454638,-99.03121651153867L-68.47308695771873,-131.82442756511634L-75.53281154631286,-132.6611426930255z" style="fill:rgb(238,238,238); fill-opacity: 0.4"></path><path d="M22.51243563962889,-121.04086763688375L-86.75512944811621,-88.24765658330608" style="fill:none;stroke:rgb(0,0,0);stroke-width:1;stroke-linecap:round"></path><path d="M-113.48027080884737,110.25940401403871L-4.21270572110225,77.46619296046104L22.512435639628883,80.6336437287477z" style="fill:rgb(238,238,238); fill-opacity: 0.4"></path><path d="M106.5002282606574,80.60168176907185L79.77508689992625,77.43423100078518M79.77508689992625,-98.40894097412112L79.77508689992625,77.43423100078518M79.77508689992625,77.43423100078518L-15.497018181162302,106.0271464458569" style="fill:none;stroke:rgb(0,0,0);stroke-width:1;stroke-linecap:round"></path><path d="M-177.7406520454638,102.64329485409276L-184.80037663405793,101.80657972618359L-68.47308695771873,69.8500838005151zM-75.53281154631286,69.01336867260592L-184.80037663405793,101.80657972618359L-184.80037663405793,-99.86793163944785zM-4.21270572110225,-124.20831840517039L-4.21270572110225,77.46619296046104L-113.48027080884737,-91.41510735159272z" style="fill:rgb(238,238,238); fill-opacity: 0.4"></path><path d="M106.5002282606574,-95.24149020583445L106.5002282606574,80.60168176907185M106.5002282606574,80.60168176907185L11.228123179568831,109.19459721414357" style="fill:none;stroke:rgb(0,0,0);stroke-width:1;stroke-linecap:round"></path><path d="M106.5002282606574,80.60168176907183L79.77508689992625,77.43423100078518L79.77508689992625,-98.40894097412112zM-86.75512944811622,113.42685478232536L22.512435639628883,80.6336437287477L22.512435639628883,-121.04086763688375zM-177.7406520454638,-99.03121651153867L-177.7406520454638,102.64329485409276L-68.47308695771873,-131.82442756511634zM106.5002282606574,-95.24149020583447L106.5002282606574,80.60168176907183L79.77508689992625,-98.40894097412112z" style="fill:rgb(238,238,238); fill-opacity: 0.4"></path><path d="M106.5002282606574,-95.24149020583445L79.77508689992625,-98.40894097412112M79.77508689992625,-98.40894097412112L-15.497018181162302,-69.8160255290494" style="fill:none;stroke:rgb(0,0,0);stroke-width:1;stroke-linecap:round"></path><path d="M-86.75512944811622,-88.24765658330608L22.512435639628883,-121.04086763688375L-4.21270572110225,-124.20831840517039z" style="fill:rgb(238,238,238); fill-opacity: 0.4"></path><path d="M-154.44150223146954,0.2848142838234952L-161.50122682006364,-0.5519008440856696M-161.50122682006364,-11.731928999570574L-161.50122682006364,-0.5519008440856696M-161.50122682006364,-0.5519008440856696L-167.55858352761263,1.2660235946802527" style="fill:none;stroke:rgb(0,0,0);stroke-width:1;stroke-linecap:round"></path><path d="M-184.80037663405793,-99.86793163944785L-177.7406520454638,-99.03121651153867L-75.53281154631286,-132.6611426930255z" style="fill:rgb(238,238,238); fill-opacity: 0.4"></path><path d="M-154.44150223146954,-10.895213871661408L-161.50122682006364,-11.731928999570574M-161.50122682006364,-11.731928999570574L-167.55858352761263,-9.914004560804653" style="fill:none;stroke:rgb(0,0,0);stroke-width:1;stroke-linecap:round"></path><path d="M-154.44150223146954,0.28481428382349544L-161.50122682006366,-0.5519008440856694L-161.50122682006366,-11.73192899957057zM-154.44150223146954,-10.895213871661406L-154.44150223146954,0.28481428382349544L-161.50122682006366,-11.73192899957057z" style="fill:rgb(153,221,255); fill-opacity: 0.4"></path><path d="M-154.44150223146954,-10.895213871661408L-154.44150223146954,0.2848142838234952M-154.44150223146954,0.2848142838234952L-160.4988589390185,2.1027387225894176M-154.44150334471996,-10.895213859523578L-154.44150334471996,0.2848142959613268M-154.44150334471996,0.2848142959613268L-160.4988581266871,2.102738156824635M-154.44150334471996,0.2848142959613268L-93.20979843585067,3.2198710731987634" style="fill:none;stroke:rgb(0,0,0);stroke-width:1;stroke-linecap:round"></path><path d="M-161.50122682006366,-11.73192899957057L-161.50122682006366,-0.5519008440856694L-167.55858352761263,-9.91400456080465zM-167.55858352761263,1.266023594680253L-161.50122682006366,-0.5519008440856694L-154.44150223146954,0.28481428382349544z" style="fill:rgb(153,221,255); fill-opacity: 0.4"></path><path d="M-154.44150223146954,-10.895213871661408L-160.4988589390185,-9.077289432895485M-154.44150334471996,-10.895213859523578L-160.4988581266871,-9.07728999866027M-154.44150334471996,-10.895213859523578L-93.20979843585067,3.2198710731987634" style="fill:none;stroke:rgb(0,0,0);stroke-width:1;stroke-linecap:round"></path><path d="M-161.50122682006366,-0.5519008440856694L-167.55858352761263,1.266023594680253L-167.55858352761263,-9.91400456080465zM-160.4988589390185,-9.077289432895485L-154.44150223146954,-10.895213871661406L-161.50122682006366,-11.73192899957057z" style="fill:rgb(153,221,255); fill-opacity: 0.4"></path><path d="M-154.44150229519684,-10.895213879214337L-154.44150229519684,0.2848142762705657L-160.49885900274583,2.1027387150364882z" style="fill:rgb(255,187,187); fill-opacity: 0.4"></path><path d="M-160.4988589390185,2.102738722589418L-154.44150223146954,0.28481428382349544L-154.44150223146954,-10.895213871661406zM-160.4988589390185,2.102738722589418L-167.55858352761263,1.266023594680253L-154.44150223146954,0.28481428382349544z" style="fill:rgb(153,221,255); fill-opacity: 0.4"></path><path d="M-167.55858352761263,-9.914004560804653L-167.55858352761263,1.2660235946802527M-167.55858352761263,1.2660235946802527L-160.4988589390185,2.1027387225894176" style="fill:none;stroke:rgb(0,0,0);stroke-width:1;stroke-linecap:round"></path><path d="M-167.55858352761263,-9.91400456080465L-160.4988589390185,-9.077289432895485L-161.50122682006366,-11.73192899957057z" style="fill:rgb(153,221,255); fill-opacity: 0.4"></path><path d="M106.5002282606574,-95.24149020583445L11.228123179568831,-66.64857476076273M-167.55858352761263,-9.914004560804653L-160.4988589390185,-9.077289432895485" style="fill:none;stroke:rgb(0,0,0);stroke-width:1;stroke-linecap:round"></path><path d="M-154.44150229519684,-10.895213879214337L-160.49885900274583,2.1027387150364882L-160.49885900274583,-9.077289440448414z" style="fill:rgb(255,187,187); fill-opacity: 0.4"></path><path d="M-160.4988589390185,-9.077289432895485L-160.4988589390185,2.102738722589418L-154.44150223146954,-10.895213871661406zM-167.55858352761263,-9.91400456080465L-167.55858352761263,1.266023594680253L-160.4988589390185,-9.077289432895485zM-167.55858352761263,1.266023594680253L-160.4988589390185,2.102738722589418L-160.4988589390185,-9.077289432895485z" style="fill:rgb(153,221,255); fill-opacity: 0.4"></path><path d="M-160.4988581266871,2.102738156824635L-160.4988581266871,-9.07728999866027M-160.4988581266871,2.102738156824635L-93.20979843585067,3.2198710731987634M-160.4988589390185,-9.077289432895485L-160.4988589390185,2.1027387225894176M-160.4988581266871,-9.07728999866027L-93.20979843585067,3.2198710731987634" style="fill:none;stroke:rgb(0,0,0);stroke-width:1;stroke-linecap:round"></path><path d="M-15.497018181162305,106.0271464458569L79.77508689992625,77.43423100078518L106.5002282606574,80.60168176907183zM-86.75512944811622,113.42685478232536L-113.48027080884737,110.25940401403871L22.512435639628883,80.6336437287477z" style="fill:rgb(238,238,238); fill-opacity: 0.4"></path><path d="M201.939941105683,91.91315016116137L170.76060951816336,88.2177909314936M170.76060951816336,-87.62538104341272L170.76060951816336,88.2177909314936M170.76060951816336,88.2177909314936L75.4885044370748,116.81070637656532M-184.80037663405793,-99.86793163944783L-184.80037663405793,101.8065797261836M-184.80037663405793,101.8065797261836L-177.74065204546383,102.64329485409277" style="fill:none;stroke:rgb(0,0,0);stroke-width:1;stroke-linecap:round"></path><path d="M-4.21270572110225,77.46619296046104L-113.48027080884737,110.25940401403871L-113.48027080884737,-91.41510735159272z" style="fill:rgb(238,238,238); fill-opacity: 0.4"></path><path d="M-154.44150229519684,0.2848142762705657L-154.44150229519684,-10.895213879214337L-93.2097993119094,3.2198715897617682z" style="fill:rgb(255,187,187); fill-opacity: 0.4"></path><path d="M-177.74065204546383,-99.03121651153866L-177.74065204546383,102.64329485409277" style="fill:none;stroke:rgb(0,0,0);stroke-width:1;stroke-linecap:round"></path><path d="M-160.49885900274583,2.1027387150364882L-154.44150229519684,0.2848142762705657L-93.2097993119094,3.2198715897617682zM-154.44150229519684,-10.895213879214337L-160.49885900274583,-9.077289440448414L-93.2097993119094,3.2198715897617682zM-160.49885900274583,-9.077289440448414L-160.49885900274583,2.1027387150364882L-93.2097993119094,3.2198715897617682z" style="fill:rgb(255,187,187); fill-opacity: 0.4"></path><path d="M67.58412699465916,47.994435316522114L40.85898563392802,44.82698454823546M40.85898563392802,33.646956392750546L40.85898563392802,44.82698454823546M40.85898563392802,44.82698454823546L34.801628926379045,46.64490898700137M-47.317169419996304,-64.0372155101791L-74.04231078072745,-67.20466627846577M-74.04231078072745,-78.38469443395067L-74.04231078072745,-67.20466627846577M-74.04231078072745,-67.20466627846577L-80.09966748827641,-65.38674183969985M67.58412699465916,36.81440716103721L40.85898563392802,33.646956392750546M40.85898563392802,33.646956392750546L34.801628926379045,35.464880831516474" style="fill:none;stroke:rgb(0,0,0);stroke-width:1;stroke-linecap:round"></path><path d="M79.77508689992625,-98.40894097412112L79.77508689992625,77.43423100078518L-15.497018181162305,-69.8160255290494zM-184.80037663405793,101.80657972618359L-177.7406520454638,102.64329485409276L-177.7406520454638,-99.03121651153867z" style="fill:rgb(238,238,238); fill-opacity: 0.4"></path><path d="M-47.317169419996304,-75.21724366566401L-74.04231078072745,-78.38469443395067M-74.04231078072745,-78.38469443395067L-80.09966748827641,-76.56676999518476" style="fill:none;stroke:rgb(0,0,0);stroke-width:1;stroke-linecap:round"></path><path d="M201.939941105683,91.91315016116137L170.76060951816333,88.21779093149358L170.76060951816333,-87.62538104341273z" style="fill:rgb(238,238,238); fill-opacity: 0.4"></path><path d="M40.858985633928015,33.646956392750546L40.858985633928015,44.82698454823546L34.80162892637905,35.464880831516474z" style="fill:rgb(153,221,255); fill-opacity: 0.4"></path><path d="M201.939941105683,-83.93002181374494L201.939941105683,91.91315016116137M201.939941105683,91.91315016116137L106.66783602459442,120.5060656062331" style="fill:none;stroke:rgb(0,0,0);stroke-width:1;stroke-linecap:round"></path><path d="M67.58412699465914,47.994435316522114L40.858985633928015,44.82698454823546L40.858985633928015,33.646956392750546zM-74.04231078072745,-78.38469443395066L-74.04231078072745,-67.20466627846577L-80.09966748827641,-76.56676999518474zM40.858985633928015,44.82698454823546L34.80162892637905,46.64490898700137L34.80162892637905,35.464880831516474z" style="fill:rgb(153,221,255); fill-opacity: 0.4"></path><path d="M11.228123179568827,109.19459721414356L106.5002282606574,80.60168176907183L106.5002282606574,-95.24149020583447z" style="fill:rgb(238,238,238); fill-opacity: 0.4"></path><path d="M-47.3171694199963,-64.03721551017908L-74.04231078072745,-67.20466627846577L-74.04231078072745,-78.38469443395066zM34.80162892637905,46.64490898700137L40.858985633928015,44.82698454823546L67.58412699465914,47.994435316522114zM-74.04231078072745,-67.20466627846577L-80.09966748827641,-65.38674183969984L-80.09966748827641,-76.56676999518474z" style="fill:rgb(153,221,255); fill-opacity: 0.4"></path><path d="M34.801628926379045,35.464880831516474L34.801628926379045,46.64490898700137M34.801628926379045,46.64490898700137L61.526770287110175,49.812359755288036" style="fill:none;stroke:rgb(0,0,0);stroke-width:1;stroke-linecap:round"></path><path d="M-80.09966748827641,-65.38674183969984L-74.04231078072745,-67.20466627846577L-47.3171694199963,-64.03721551017908z" style="fill:rgb(153,221,255); fill-opacity: 0.4"></path><path d="M-80.09966748827641,-76.56676999518476L-80.09966748827641,-65.38674183969985M-80.09966748827641,-65.38674183969985L-53.37452612754527,-62.21929107141319M34.801628926379045,35.464880831516474L61.526770287110175,38.63233159980314" style="fill:none;stroke:rgb(0,0,0);stroke-width:1;stroke-linecap:round"></path><path d="M67.58412699465914,36.81440716103721L67.58412699465914,47.994435316522114L40.858985633928015,33.646956392750546z" style="fill:rgb(153,221,255); fill-opacity: 0.4"></path><path d="M-80.09966748827641,-76.56676999518476L-53.37452612754527,-73.3993192268981" style="fill:none;stroke:rgb(0,0,0);stroke-width:1;stroke-linecap:round"></path><path d="M34.80162892637905,35.464880831516474L61.526770287110175,38.63233159980314L40.858985633928015,33.646956392750546zM-47.3171694199963,-75.21724366566401L-47.3171694199963,-64.03721551017908L-74.04231078072745,-78.38469443395066z" style="fill:rgb(153,221,255); fill-opacity: 0.4"></path><path d="M-184.80037663405793,-99.86793163944785L-184.80037663405793,101.80657972618359L-177.7406520454638,-99.03121651153867z" style="fill:rgb(238,238,238); fill-opacity: 0.4"></path><path d="M-80.09966748827641,-76.56676999518474L-53.37452612754529,-73.39931922689807L-74.04231078072745,-78.38469443395066zM61.526770287110175,38.63233159980314L67.58412699465914,36.81440716103721L40.858985633928015,33.646956392750546zM34.80162892637905,35.464880831516474L34.80162892637905,46.64490898700137L61.526770287110175,38.63233159980314z" style="fill:rgb(153,221,255); fill-opacity: 0.4"></path><path d="M67.58412699465916,36.81440716103721L67.58412699465916,47.994435316522114M67.58412699465916,47.994435316522114L61.526770287110175,49.812359755288036M67.5841263791408,36.814405791310975L67.5841263791408,47.99443394679587M67.5841263791408,47.99443394679587L61.52676991228956,49.81235831332397M67.5841263791408,47.99443394679587L128.81582936242827,50.92949126028708" style="fill:none;stroke:rgb(0,0,0);stroke-width:1;stroke-linecap:round"></path><path d="M-86.75512944811622,-88.24765658330608L-86.75512944811622,113.42685478232536L22.512435639628883,-121.04086763688375z" style="fill:rgb(238,238,238); fill-opacity: 0.4"></path><path d="M61.526770287110175,49.812359755288036L34.80162892637905,46.64490898700137L67.58412699465914,47.994435316522114zM-53.37452612754529,-73.39931922689807L-47.3171694199963,-75.21724366566401L-74.04231078072745,-78.38469443395066zM-80.09966748827641,-76.56676999518474L-80.09966748827641,-65.38674183969984L-53.37452612754529,-73.39931922689807z" style="fill:rgb(153,221,255); fill-opacity: 0.4"></path><path d="M-47.317169419996304,-75.21724366566401L-47.317169419996304,-64.0372155101791M-47.317169419996304,-64.0372155101791L-53.37452612754527,-62.21929107141319M-47.31716993703173,-75.21724707745302L-47.31716993703173,-64.0372189219681M-47.31716993703173,-64.0372189219681L-53.37452760737163,-62.21929419425088M-47.31716993703173,-64.0372189219681L16.248806151632053,-52.788044685496075M67.58412699465916,36.81440716103721L61.526770287110175,38.63233159980314M67.5841263791408,36.814405791310975L61.52676991228956,38.63233015783907M67.5841263791408,36.814405791310975L128.81582936242827,50.92949126028708" style="fill:none;stroke:rgb(0,0,0);stroke-width:1;stroke-linecap:round"></path><path d="M-113.48027080884737,-91.41510735159272L-86.75512944811622,-88.24765658330608L-4.21270572110225,-124.20831840517039z" style="fill:rgb(238,238,238); fill-opacity: 0.4"></path><path d="M-53.37452612754529,-62.219291071413174L-80.09966748827641,-65.38674183969984L-47.3171694199963,-64.03721551017908z" style="fill:rgb(153,221,255); fill-opacity: 0.4"></path><path d="M67.584126957941,36.8144071566854L67.584126957941,47.9944353121703L61.52677025039203,49.812359750936224z" style="fill:rgb(255,187,187); fill-opacity: 0.4"></path><path d="M61.526770287110175,49.812359755288036L67.58412699465914,47.994435316522114L67.58412699465914,36.81440716103721z" style="fill:rgb(153,221,255); fill-opacity: 0.4"></path><path d="M201.939941105683,-83.93002181374494L170.76060951816336,-87.62538104341272M170.76060951816336,-87.62538104341272L75.4885044370748,-59.03246559834098M-47.317169419996304,-75.21724366566401L-53.37452612754527,-73.3993192268981M-47.31716993703173,-75.21724707745302L-53.37452760737163,-73.39932234973578M-47.31716993703173,-75.21724707745302L16.248806151632053,-52.788044685496075" style="fill:none;stroke:rgb(0,0,0);stroke-width:1;stroke-linecap:round"></path><path d="M34.80162892637905,46.64490898700137L61.526770287110175,49.812359755288036L61.526770287110175,38.63233159980314z" style="fill:rgb(153,221,255); fill-opacity: 0.4"></path><path d="M201.939941105683,-83.93002181374494L201.939941105683,91.91315016116137L170.76060951816333,-87.62538104341273z" style="fill:rgb(238,238,238); fill-opacity: 0.4"></path><path d="M-47.317169456714446,-75.21724367001582L-47.317169456714446,-64.0372155145309L-53.374526164263436,-62.21929107576499z" style="fill:rgb(255,187,187); fill-opacity: 0.4"></path><path d="M-53.37452612754529,-62.219291071413174L-47.3171694199963,-64.03721551017908L-47.3171694199963,-75.21724366566401zM-80.09966748827641,-65.38674183969984L-53.37452612754529,-62.219291071413174L-53.37452612754529,-73.39931922689807z" style="fill:rgb(153,221,255); fill-opacity: 0.4"></path><path d="M67.584126957941,36.8144071566854L61.52677025039203,49.812359750936224L61.52677025039203,38.632331595451326z" style="fill:rgb(255,187,187); fill-opacity: 0.4"></path><path d="M61.526770287110175,38.63233159980314L61.526770287110175,49.812359755288036L67.58412699465914,36.81440716103721z" style="fill:rgb(153,221,255); fill-opacity: 0.4"></path><path d="M11.228123179568827,-66.64857476076274L106.5002282606574,-95.24149020583447L79.77508689992625,-98.40894097412112z" style="fill:rgb(238,238,238); fill-opacity: 0.4"></path><path d="M61.52676991228956,49.81235831332397L61.52676991228956,38.63233015783907M61.52676991228956,49.81235831332397L128.81582936242827,50.92949126028708M61.526770287110175,38.63233159980314L61.526770287110175,49.812359755288036" style="fill:none;stroke:rgb(0,0,0);stroke-width:1;stroke-linecap:round"></path><path d="M-47.317169456714446,-75.21724367001582L-53.374526164263436,-62.21929107576499L-53.374526164263436,-73.39931923124989z" style="fill:rgb(255,187,187); fill-opacity: 0.4"></path><path d="M-53.37452612754529,-73.39931922689807L-53.37452612754529,-62.219291071413174L-47.3171694199963,-75.21724366566401z" style="fill:rgb(153,221,255); fill-opacity: 0.4"></path><path d="M-184.80037663405793,-99.86793163944783L-177.74065204546383,-99.03121651153866M-53.37452612754527,-73.3993192268981L-53.37452612754527,-62.21929107141319M-53.37452760737163,-62.21929419425088L-53.37452760737163,-73.39932234973578M-53.37452760737163,-62.21929419425088L16.248806151632053,-52.788044685496075M61.52676991228956,38.63233015783907L128.81582936242827,50.92949126028708M-53.37452760737163,-73.39932234973578L16.248806151632053,-52.788044685496075M-113.48027080884737,-91.41510735159272L-113.48027080884737,110.25940401403871M-113.48027080884737,110.25940401403871L-86.75512944811621,113.42685478232536" style="fill:none;stroke:rgb(0,0,0);stroke-width:1;stroke-linecap:round"></path><path d="M67.584126957941,47.9944353121703L67.584126957941,36.8144071566854L128.81582994122843,50.929492625661496zM-47.317169456714446,-64.0372155145309L-47.317169456714446,-75.21724367001582L16.248806920246782,-52.78804137283327zM61.52677025039203,49.812359750936224L67.584126957941,47.9944353121703L128.81582994122843,50.929492625661496zM-53.374526164263436,-62.21929107576499L-47.317169456714446,-64.0372155145309L16.248806920246782,-52.78804137283327zM67.584126957941,36.8144071566854L61.52677025039203,38.632331595451326L128.81582994122843,50.929492625661496zM-47.317169456714446,-75.21724367001582L-53.374526164263436,-73.39931923124989L16.248806920246782,-52.78804137283327zM61.52677025039203,38.632331595451326L61.52677025039203,49.812359750936224L128.81582994122843,50.929492625661496zM-53.374526164263436,-73.39931923124989L-53.374526164263436,-62.21929107576499L16.248806920246782,-52.78804137283327z" style="fill:rgb(255,187,187); fill-opacity: 0.4"></path><path d="M201.939941105683,-83.93002181374494L106.66783602459442,-55.337106368673204" style="fill:none;stroke:rgb(0,0,0);stroke-width:1;stroke-linecap:round"></path><path d="M11.228123179568827,109.19459721414356L-15.497018181162305,106.0271464458569L106.5002282606574,80.60168176907183zM79.77508689992625,77.43423100078518L-15.497018181162305,106.0271464458569L-15.497018181162305,-69.8160255290494zM75.48850443707477,116.8107063765653L170.76060951816333,88.21779093149358L201.939941105683,91.91315016116137z" style="fill:rgb(238,238,238); fill-opacity: 0.4"></path><path d="M-86.75512944811621,-88.24765658330608L-86.75512944811621,113.42685478232536M169.03767548861467,48.69074482084605L137.85834390109503,44.995385591178284M137.85834390109503,33.81535743569337L137.85834390109503,44.995385591178284M137.85834390109503,44.995385591178284L131.80098719354604,46.8133100299442M169.03767548861467,37.51071666536115L137.85834390109503,33.81535743569337M137.85834390109503,33.81535743569337L131.80098719354604,35.6332818744593" style="fill:none;stroke:rgb(0,0,0);stroke-width:1;stroke-linecap:round"></path><path d="M137.858343901095,33.81535743569337L137.858343901095,44.995385591178284L131.80098719354604,35.6332818744593zM137.858343901095,44.995385591178284L131.80098719354604,46.81331002994419L131.80098719354604,35.6332818744593zM169.03767548861464,48.69074482084605L137.858343901095,44.995385591178284L137.858343901095,33.81535743569337z" style="fill:rgb(153,221,255); fill-opacity: 0.4"></path><path d="M-113.48027080884737,110.25940401403871L-86.75512944811622,113.42685478232536L-86.75512944811622,-88.24765658330608z" style="fill:rgb(238,238,238); fill-opacity: 0.4"></path><path d="M131.80098719354604,35.6332818744593L131.80098719354604,46.8133100299442M131.80098719354604,46.8133100299442L162.98031878106568,50.50866925961197" style="fill:none;stroke:rgb(0,0,0);stroke-width:1;stroke-linecap:round"></path><path d="M131.80098719354604,46.81331002994419L137.858343901095,44.995385591178284L169.03767548861464,48.69074482084605z" style="fill:rgb(153,221,255); fill-opacity: 0.4"></path><path d="M170.76060951816333,-87.62538104341273L170.76060951816333,88.21779093149358L75.48850443707477,-59.032465598340984z" style="fill:rgb(238,238,238); fill-opacity: 0.4"></path><path d="M290.3819200900969,92.40909070915076L259.20258850257727,88.71373147948299M259.20258850257727,-61.29808688855722L259.20258850257727,88.71373147948299M259.20258850257727,88.71373147948299L177.9259511304726,113.10634900443829M131.80098719354604,35.6332818744593L162.98031878106568,39.32864110412707" style="fill:none;stroke:rgb(0,0,0);stroke-width:1;stroke-linecap:round"></path><path d="M169.03767548861464,37.51071666536115L169.03767548861464,48.69074482084605L137.858343901095,33.81535743569337z" style="fill:rgb(153,221,255); fill-opacity: 0.4"></path><path d="M-113.48027080884737,-91.41510735159272L-113.48027080884737,110.25940401403871L-86.75512944811622,-88.24765658330608z" style="fill:rgb(238,238,238); fill-opacity: 0.4"></path><path d="M131.80098719354604,35.6332818744593L162.98031878106568,39.32864110412707L137.858343901095,33.81535743569337zM131.80098719354604,35.6332818744593L131.80098719354604,46.81331002994419L162.98031878106568,39.32864110412707zM162.98031878106568,39.32864110412707L169.03767548861464,37.51071666536115L137.858343901095,33.81535743569337z" style="fill:rgb(153,221,255); fill-opacity: 0.4"></path><path d="M106.66783602459442,120.5060656062331L201.939941105683,91.91315016116137L201.939941105683,-83.93002181374494z" style="fill:rgb(238,238,238); fill-opacity: 0.4"></path><path d="M162.98031878106568,50.50866925961196L131.80098719354604,46.81331002994419L169.03767548861464,48.69074482084605z" style="fill:rgb(153,221,255); fill-opacity: 0.4"></path><path d="M169.03767190916116,37.5107156609036L169.03767190916116,48.69074559340612M169.03767190916116,48.69074559340612L162.9803152016122,50.50867003217205M169.03767190916116,48.69074559340612L228.5499080366097,47.84729062040418M169.03767548861467,37.51071666536115L169.03767548861467,48.69074482084605M169.03767548861467,48.69074482084605L162.98031878106568,50.50866925961197" style="fill:none;stroke:rgb(0,0,0);stroke-width:1;stroke-linecap:round"></path><path d="M11.228123179568827,-66.64857476076274L11.228123179568827,109.19459721414356L106.5002282606574,-95.24149020583447zM-15.497018181162305,-69.8160255290494L11.228123179568827,-66.64857476076274L79.77508689992625,-98.40894097412112z" style="fill:rgb(238,238,238); fill-opacity: 0.4"></path><path d="M169.03767190916116,37.5107156609036L162.9803152016122,39.32864009966953M169.03767190916116,37.5107156609036L228.5499080366097,47.84729062040418M169.03767548861467,37.51071666536115L162.98031878106568,39.32864110412707M-113.48027080884737,-91.41510735159272L-86.75512944811621,-88.24765658330608" style="fill:none;stroke:rgb(0,0,0);stroke-width:1;stroke-linecap:round"></path><path d="M131.80098719354604,46.81331002994419L162.98031878106568,50.50866925961196L162.98031878106568,39.32864110412707z" style="fill:rgb(153,221,255); fill-opacity: 0.4"></path><path d="M169.0376754457768,37.51071666028403L169.0376754457768,48.69074481576892L162.98031873822785,50.508669254534844z" style="fill:rgb(255,187,187); fill-opacity: 0.4"></path><path d="M162.98031878106568,50.50866925961196L169.03767548861464,48.69074482084605L169.03767548861464,37.51071666536115z" style="fill:rgb(153,221,255); fill-opacity: 0.4"></path><path d="M290.3819200900969,92.40909070915075L259.20258850257727,88.71373147948297L259.20258850257727,-61.29808688855723z" style="fill:rgb(238,238,238); fill-opacity: 0.4"></path><path d="M169.0376754457768,37.51071666028403L162.98031873822785,50.508669254534844L162.98031873822785,39.32864109904996z" style="fill:rgb(255,187,187); fill-opacity: 0.4"></path><path d="M162.98031878106568,39.32864110412707L162.98031878106568,50.50866925961196L169.03767548861464,37.51071666536115z" style="fill:rgb(153,221,255); fill-opacity: 0.4"></path><path d="M162.9803152016122,50.50867003217205L162.9803152016122,39.32864009966953M162.9803152016122,50.50867003217205L228.5499080366097,47.84729062040418M162.98031878106568,39.32864110412707L162.98031878106568,50.50866925961197M290.3819200900969,-57.60272765888945L290.3819200900969,92.40909070915076M290.3819200900969,92.40909070915076L209.10528271799228,116.80170823410606M162.9803152016122,39.32864009966953L228.5499080366097,47.84729062040418M-15.497018181162302,-69.8160255290494L-15.497018181162302,106.0271464458569M-15.497018181162302,106.0271464458569L11.228123179568831,109.19459721414357" style="fill:none;stroke:rgb(0,0,0);stroke-width:1;stroke-linecap:round"></path><path d="M106.66783602459442,-55.337106368673204L201.939941105683,-83.93002181374494L170.76060951816333,-87.62538104341273z" style="fill:rgb(238,238,238); fill-opacity: 0.4"></path><path d="M169.0376754457768,48.69074481576892L169.0376754457768,37.51071666028403L228.54989873339363,47.84729030480721zM162.98031873822785,50.508669254534844L169.0376754457768,48.69074481576892L228.54989873339363,47.84729030480721z" style="fill:rgb(255,187,187); fill-opacity: 0.4"></path><path d="M290.3819200900969,-57.60272765888945L259.20258850257727,-61.29808688855722M259.20258850257727,-61.29808688855722L177.9259511304726,-36.90546936360192" style="fill:none;stroke:rgb(0,0,0);stroke-width:1;stroke-linecap:round"></path><path d="M169.0376754457768,37.51071666028403L162.98031873822785,39.32864109904996L228.54989873339363,47.84729030480721zM162.98031873822785,39.32864109904996L162.98031873822785,50.508669254534844L228.54989873339363,47.84729030480721z" style="fill:rgb(255,187,187); fill-opacity: 0.4"></path><path d="M290.3819200900969,-57.60272765888945L290.3819200900969,92.40909070915075L259.20258850257727,-61.29808688855723z" style="fill:rgb(238,238,238); fill-opacity: 0.4"></path><path d="M11.228123179568831,-66.64857476076273L11.228123179568831,109.19459721414357" style="fill:none;stroke:rgb(0,0,0);stroke-width:1;stroke-linecap:round"></path><path d="M170.76060951816333,88.21779093149358L75.48850443707477,116.8107063765653L75.48850443707477,-59.032465598340984zM106.66783602459442,120.5060656062331L75.48850443707477,116.8107063765653L201.939941105683,91.91315016116137zM-15.497018181162305,106.0271464458569L11.228123179568827,109.19459721414356L11.228123179568827,-66.64857476076274z" style="fill:rgb(238,238,238); fill-opacity: 0.4"></path><path d="M290.3819200900969,-57.60272765888945L209.10528271799228,-33.210110133934144" style="fill:none;stroke:rgb(0,0,0);stroke-width:1;stroke-linecap:round"></path><path d="M-15.497018181162305,-69.8160255290494L-15.497018181162305,106.0271464458569L11.228123179568827,-66.64857476076274zM177.92595113047258,113.10634900443827L259.20258850257727,88.71373147948297L290.3819200900969,92.40909070915075z" style="fill:rgb(238,238,238); fill-opacity: 0.4"></path><path d="M-15.497018181162302,-69.8160255290494L11.228123179568831,-66.64857476076273" style="fill:none;stroke:rgb(0,0,0);stroke-width:1;stroke-linecap:round"></path><path d="M259.20258850257727,-61.29808688855723L259.20258850257727,88.71373147948297L177.92595113047258,-36.905469363601924zM75.48850443707477,-59.032465598340984L106.66783602459442,-55.337106368673204L170.76060951816333,-87.62538104341273zM106.66783602459442,-55.337106368673204L106.66783602459442,120.5060656062331L201.939941105683,-83.93002181374494zM209.10528271799222,116.80170823410604L290.3819200900969,92.40909070915075L290.3819200900969,-57.60272765888945z" style="fill:rgb(238,238,238); fill-opacity: 0.4"></path><path d="M75.4885044370748,-59.03246559834098L75.4885044370748,116.81070637656532M75.4885044370748,116.81070637656532L106.66783602459442,120.5060656062331" style="fill:none;stroke:rgb(0,0,0);stroke-width:1;stroke-linecap:round"></path><path d="M209.10528271799222,-33.210110133934144L290.3819200900969,-57.60272765888945L259.20258850257727,-61.29808688855723zM259.20258850257727,88.71373147948297L177.92595113047258,113.10634900443827L177.92595113047258,-36.905469363601924z" style="fill:rgb(238,238,238); fill-opacity: 0.4"></path><path d="M106.66783602459442,-55.337106368673204L106.66783602459442,120.5060656062331" style="fill:none;stroke:rgb(0,0,0);stroke-width:1;stroke-linecap:round"></path><path d="M209.10528271799222,116.80170823410604L177.92595113047258,113.10634900443827L290.3819200900969,92.40909070915075zM75.48850443707477,116.8107063765653L106.66783602459442,120.5060656062331L106.66783602459442,-55.337106368673204zM75.48850443707477,-59.032465598340984L75.48850443707477,116.8107063765653L106.66783602459442,-55.337106368673204z" style="fill:rgb(238,238,238); fill-opacity: 0.4"></path><path d="M264.09209596443276,31.30006689094998L300.50631205543453,35.61586208833204M75.4885044370748,-59.03246559834098L106.66783602459442,-55.337106368673204" style="fill:none;stroke:rgb(0,0,0);stroke-width:1;stroke-linecap:round"></path><path d="M177.92595113047258,-36.905469363601924L209.10528271799222,-33.210110133934144L259.20258850257727,-61.29808688855723zM209.10528271799222,-33.210110133934144L209.10528271799222,116.80170823410604L290.3819200900969,-57.60272765888945z" style="fill:rgb(238,238,238); fill-opacity: 0.4"></path><path d="M354.40814222968675,87.15907330237346L332.13719109574413,84.51953099546789M332.13719109574413,-11.649087136518432L332.13719109574413,84.51953099546789M332.13719109574413,84.51953099546789L318.14172531234203,88.71982833768169M177.9259511304726,-36.90546936360192L177.9259511304726,113.10634900443829M177.9259511304726,113.10634900443829L209.10528271799228,116.80170823410606" style="fill:none;stroke:rgb(0,0,0);stroke-width:1;stroke-linecap:round"></path><path d="M303.47333279732555,27.1880437325564L297.53929131354346,28.96895899887614L321.9264391677885,38.15456514561559z" style="fill:rgb(0,0,0)"></path><path d="M354.4081422296867,87.15907330237344L332.1371910957441,84.51953099546789L332.1371910957441,-11.649087136518432z" style="fill:rgb(238,238,238); fill-opacity: 0.4"></path><path d="M295.70557146218266,39.935668518442945L300.50631205543453,44.93255221790279L321.9264391677885,38.15456514561559z" style="fill:rgb(0,0,0)"></path><path d="M318.14172531234203,88.71982833768168L332.1371910957441,84.51953099546789L354.4081422296867,87.15907330237344z" style="fill:rgb(238,238,238); fill-opacity: 0.4"></path><path d="M297.53929131354346,28.96895899887614L295.70557146218266,39.935668518442945L321.9264391677885,38.15456514561559z" style="fill:rgb(0,0,0)"></path><path d="M354.40814222968675,-9.00954482961288L354.40814222968675,87.15907330237346M354.40814222968675,87.15907330237346L340.41267644628465,91.35937064458724M354.40814222968675,-9.00954482961288L332.13719109574413,-11.649087136518432M332.13719109574413,-11.649087136518432L318.14172531234203,-7.448789794304639" style="fill:none;stroke:rgb(0,0,0);stroke-width:1;stroke-linecap:round"></path><path d="M332.1371910957441,-11.649087136518432L332.1371910957441,84.51953099546789L318.14172531234203,-7.4487897943046395zM332.1371910957441,84.51953099546789L318.14172531234203,88.71982833768168L318.14172531234203,-7.4487897943046395zM354.4081422296867,-9.00954482961288L354.4081422296867,87.15907330237344L332.1371910957441,-11.649087136518432z" style="fill:rgb(238,238,238); fill-opacity: 0.4"></path><path d="M318.14172531234203,-7.448789794304639L318.14172531234203,88.71982833768169M318.14172531234203,88.71982833768169L340.41267644628465,91.35937064458724M209.10528271799228,-33.210110133934144L209.10528271799228,116.80170823410606" style="fill:none;stroke:rgb(0,0,0);stroke-width:1;stroke-linecap:round"></path><path d="M340.41267644628465,91.35937064458723L318.14172531234203,88.71982833768168L354.4081422296867,87.15907330237344zM177.92595113047258,113.10634900443827L209.10528271799222,116.80170823410604L209.10528271799222,-33.210110133934144zM340.41267644628465,91.35937064458723L354.4081422296867,87.15907330237344L354.4081422296867,-9.00954482961288zM177.92595113047258,-36.905469363601924L177.92595113047258,113.10634900443827L209.10528271799222,-33.210110133934144z" style="fill:rgb(238,238,238); fill-opacity: 0.4"></path><path d="M354.40814222968675,-9.00954482961288L340.41267644628465,-4.809247487399086M177.9259511304726,-36.90546936360192L209.10528271799228,-33.210110133934144" style="fill:none;stroke:rgb(0,0,0);stroke-width:1;stroke-linecap:round"></path><path d="M340.41267644628465,-4.8092474873990865L354.4081422296867,-9.00954482961288L332.1371910957441,-11.649087136518432z" style="fill:rgb(238,238,238); fill-opacity: 0.4"></path><path d="M340.41267644628465,-4.809247487399086L340.41267644628465,91.35937064458724M350.62342837424035,41.555718362453206L387.0376444652421,45.87151355983526" style="fill:none;stroke:rgb(0,0,0);stroke-width:1;stroke-linecap:round"></path><path d="M318.14172531234203,88.71982833768168L340.41267644628465,91.35937064458723L340.41267644628465,-4.8092474873990865zM318.14172531234203,-7.4487897943046395L340.41267644628465,-4.8092474873990865L332.1371910957441,-11.649087136518432zM318.14172531234203,-7.4487897943046395L318.14172531234203,88.71982833768168L340.41267644628465,-4.8092474873990865z" style="fill:rgb(238,238,238); fill-opacity: 0.4"></path><path d="M318.14172531234203,-7.448789794304639L340.41267644628465,-4.809247487399086" style="fill:none;stroke:rgb(0,0,0);stroke-width:1;stroke-linecap:round"></path><path d="M340.41267644628465,-4.8092474873990865L340.41267644628465,91.35937064458723L354.4081422296867,-9.00954482961288z" style="fill:rgb(238,238,238); fill-opacity: 0.4"></path><path d="M440.9394746394944,67.4123607448651L418.66852350555183,64.77281843795954M418.66852350555183,28.608928363996352L418.66852350555183,64.77281843795954M418.66852350555183,64.77281843795954L404.67305772214974,68.97311578017334" style="fill:none;stroke:rgb(0,0,0);stroke-width:1;stroke-linecap:round"></path><path d="M390.00466520713314,37.44369520405962L384.0706237233511,39.22461047037936L408.45777157759613,48.410216617118806zM382.2369038719903,50.19131998994616L387.0376444652421,55.188203689406L408.45777157759613,48.410216617118806z" style="fill:rgb(0,0,0)"></path><path d="M440.9394746394944,67.4123607448651L418.66852350555183,64.77281843795954L418.66852350555183,28.608928363996352z" style="fill:rgb(238,238,238); fill-opacity: 0.4"></path><path d="M440.9394746394944,31.248470670901906L418.66852350555183,28.608928363996352M418.66852350555183,28.608928363996352L404.67305772214974,32.80922570621014" style="fill:none;stroke:rgb(0,0,0);stroke-width:1;stroke-linecap:round"></path><path d="M384.0706237233511,39.22461047037936L382.2369038719903,50.19131998994616L408.45777157759613,48.410216617118806z" style="fill:rgb(0,0,0)"></path><path d="M404.67305772214974,68.97311578017333L418.66852350555183,64.77281843795954L440.9394746394944,67.4123607448651zM418.66852350555183,28.608928363996352L418.66852350555183,64.77281843795954L404.67305772214974,32.80922570621014z" style="fill:rgb(238,238,238); fill-opacity: 0.4"></path><path d="M440.9394746394944,31.248470670901906L440.9394746394944,67.4123607448651M440.9394746394944,67.4123607448651L426.94400885609235,71.6126580870789" style="fill:none;stroke:rgb(0,0,0);stroke-width:1;stroke-linecap:round"></path><path d="M440.9394746394944,31.248470670901906L440.9394746394944,67.4123607448651L418.66852350555183,28.608928363996352zM418.66852350555183,64.77281843795954L404.67305772214974,68.97311578017333L404.67305772214974,32.80922570621014z" style="fill:rgb(238,238,238); fill-opacity: 0.4"></path><path d="M440.9394746394944,31.248470670901906L426.94400885609235,35.448768013115696M404.67305772214974,32.80922570621014L404.67305772214974,68.97311578017334M404.67305772214974,68.97311578017334L426.94400885609235,71.6126580870789" style="fill:none;stroke:rgb(0,0,0);stroke-width:1;stroke-linecap:round"></path><path d="M426.94400885609235,71.61265808707888L440.9394746394944,67.4123607448651L440.9394746394944,31.248470670901906zM426.94400885609235,35.448768013115696L440.9394746394944,31.248470670901906L418.66852350555183,28.608928363996352zM426.94400885609235,71.61265808707888L404.67305772214974,68.97311578017333L440.9394746394944,67.4123607448651zM404.67305772214974,32.80922570621014L426.94400885609235,35.448768013115696L418.66852350555183,28.608928363996352z" style="fill:rgb(238,238,238); fill-opacity: 0.4"></path><path d="M404.67305772214974,32.80922570621014L426.94400885609235,35.448768013115696M437.154760784048,51.811369833956405L473.56897687504977,56.12716503133846" style="fill:none;stroke:rgb(0,0,0);stroke-width:1;stroke-linecap:round"></path><path d="M404.67305772214974,32.80922570621014L404.67305772214974,68.97311578017333L426.94400885609235,35.448768013115696zM426.94400885609235,35.448768013115696L426.94400885609235,71.61265808707888L440.9394746394944,31.248470670901906zM404.67305772214974,68.97311578017333L426.94400885609235,71.61265808707888L426.94400885609235,35.448768013115696z" style="fill:rgb(238,238,238); fill-opacity: 0.4"></path><path d="M426.94400885609235,35.448768013115696L426.94400885609235,71.6126580870789M527.4708070493019,61.44940520530086L505.1998559153594,58.809862898395316M505.1998559153594,55.08318684656701L505.1998559153594,58.809862898395316M505.1998559153594,58.809862898395316L491.2043901319574,63.01016024060911M527.4708070493019,57.72272915347257L505.1998559153594,55.08318684656701M505.1998559153594,55.08318684656701L491.2043901319574,59.28348418878081" style="fill:none;stroke:rgb(0,0,0);stroke-width:1;stroke-linecap:round"></path><path d="M476.5359976169408,47.69934667556283L470.60195613315875,49.48026194188257L494.9891039874037,58.66586808862202zM468.76823628179795,60.44697146144937L473.56897687504977,65.44385516090921L494.9891039874037,58.66586808862202z" style="fill:rgb(0,0,0)"></path><path d="M527.470807049302,61.44940520530086L505.1998559153594,58.809862898395316L505.1998559153594,55.08318684656701z" style="fill:rgb(238,238,238); fill-opacity: 0.4"></path><path d="M470.60195613315875,49.48026194188257L468.76823628179795,60.44697146144937L494.9891039874037,58.66586808862202z" style="fill:rgb(0,0,0)"></path><path d="M505.1998559153594,55.08318684656701L505.1998559153594,58.809862898395316L491.2043901319574,59.283484188780804zM527.470807049302,57.722729153472564L527.470807049302,61.44940520530086L505.1998559153594,55.08318684656701zM491.2043901319574,63.010160240609096L505.1998559153594,58.809862898395316L527.470807049302,61.44940520530086z" style="fill:rgb(238,238,238); fill-opacity: 0.4"></path><path d="M527.4708070493019,57.72272915347257L527.4708070493019,61.44940520530086M527.4708070493019,61.44940520530086L513.4753412658999,65.64970254751465M527.4708070493019,57.72272915347257L513.4753412658999,61.92302649568636" style="fill:none;stroke:rgb(0,0,0);stroke-width:1;stroke-linecap:round"></path><path d="M505.1998559153594,58.809862898395316L491.2043901319574,63.010160240609096L491.2043901319574,59.283484188780804zM513.4753412659,61.923026495686344L527.470807049302,57.722729153472564L505.1998559153594,55.08318684656701zM491.2043901319574,59.283484188780804L513.4753412659,61.923026495686344L505.1998559153594,55.08318684656701zM513.4753412659,65.64970254751465L527.470807049302,61.44940520530086L527.470807049302,57.722729153472564z" style="fill:rgb(238,238,238); fill-opacity: 0.4"></path><path d="M491.2043901319574,59.28348418878081L491.2043901319574,63.01016024060911M491.2043901319574,63.01016024060911L513.4753412658999,65.64970254751465M491.2043901319574,59.28348418878081L513.4753412658999,61.92302649568636" style="fill:none;stroke:rgb(0,0,0);stroke-width:1;stroke-linecap:round"></path><path d="M513.4753412659,65.64970254751465L491.2043901319574,63.010160240609096L527.470807049302,61.44940520530086zM491.2043901319574,59.283484188780804L491.2043901319574,63.010160240609096L513.4753412659,61.923026495686344zM513.4753412659,61.923026495686344L513.4753412659,65.64970254751465L527.470807049302,57.722729153472564zM491.2043901319574,63.010160240609096L513.4753412659,65.64970254751465L513.4753412659,61.923026495686344z" style="fill:rgb(238,238,238); fill-opacity: 0.4"></path><path d="M513.4753412658999,61.92302649568636L513.4753412658999,65.64970254751465" style="fill:none;stroke:rgb(0,0,0);stroke-width:1;stroke-linecap:round"></path></svg>